<?xml version="1.0" encoding="utf-8"?>
<!-- Generator: Adobe Illustrator 26.3.1, SVG Export Plug-In . SVG Version: 6.00 Build 0)  -->
<svg version="1.0" xmlns="http://www.w3.org/2000/svg" xmlns:xlink="http://www.w3.org/1999/xlink" x="0px" y="0px"
	 viewBox="0 0 737.0079 569.7638" style="enable-background:new 0 0 737.0079 569.7638;" xml:space="preserve">
<g>
	<path id="baar" class="alg-wahlkreis" d="M249.4537,125.1845l8.1734,0.1339l9.5133-6.9608l-1.7419-2.8111l5.6276,1.2048l6.6995-4.819
		l4.1537,0.6693l0.67-13.6539h18.6246l1.8759-2.945l3.3498,3.0788l17.5527,2.8111l3.2158,2.2757l2.5458-14.7248l9.3793,4.2836
		l6.5655-8.1656l15.9448,5.6222l16.2128-1.4725l2.6798-5.3545l16.3468,11.9137l28.2719,4.1497l4.5557,5.6222l1.8758-0.6693
		l5.6276,6.2915l-3.0818,10.0396l-12.4611,14.3232l-14.7389,4.0159v8.8349l-7.5034,2.1418l-2.5458,16.8666l-6.0295,7.4963
		l1.7419,1.4725l-0.268,6.0238l2.4118,7.2285l-4.6896,22.355l-5.2256,14.8587l2.9478,7.4963l6.1636,3.7481l4.6896,16.3312
		l-1.4739,3.2127v2.2757l2.1438,4.0159l-2.6798,27.3079l3.4838,8.4333l-0.5359,4.1497l-1.7419,3.2127v12.8508l7.9054,2.6772
		l1.3399,1.6064l-5.2256,3.6143l-0.4019,6.2915l-6.8335,0.8032l-7.7714-23.8274l-9.5133,5.2206l-18.2227-3.6143l-1.3399-6.0238
		l-4.0197,0.2677l-5.4936-14.7248l-3.7517,0.2678l-4.2877-6.2915l0.6699-10.0397l8.3074-4.0158l-9.9153-19.1423l-9.7812,0.5354
		l-2.1439,3.0788l-2.5458-8.9688l-14.2029-7.2285l7.2354-14.591l-3.7517-1.4725l3.0817-4.9529l-3.2157-4.6852l-4.2877-2.0079
		l-6.1635,12.583l-9.9153,2.5434l-23.7162-15.3941l2.2778-3.7481l-1.2059-2.2757l-9.6473,6.6931l1.0719,5.4884l-6.5655,2.5434
		l-7.5034-7.2285l6.2975-5.0867l-1.6079-18.8746l6.4315-4.6852l3.7517-10.8428l-18.4906-8.4333l0.67-12.0476l4.1537,0.4016
		l10.4512-18.4729L249.4537,125.1845L249.4537,125.1845z"/>
	<path id="cham" class="alg-wahlkreis" d="M195.9917,233.0773l-4.4217-2.1418h-1.2059l-8.1734,4.9529l-3.0818,9.3703l-1.8759,0.937
		l-8.7094-4.9529l-1.6079,0.2677l-14.7389,9.6381l-5.7616,8.701l-8.8434-8.9688l-4.5556,1.8741l-3.7517-6.5592l0.536-7.8978
		l-15.9448-1.4725l-24.9222-21.2841l-0.67-5.0867l-4.8236-2.0079l0.9379-3.2127l-6.5655-2.1418l-6.5655-30.6544l5.8956-10.709
		l-12.997-24.8983l-3.6177-1.0709l1.2059-6.2915l-8.1734-16.0634l3.4837-60.104l1.6079-0.8032l1.4739,23.6936l1.2059,1.8741
		l4.9576,1.8741l1.6079,1.8741l0.402,6.1577l17.2847-5.7561l17.9547,4.0159l9.5133-5.3545l6.4315,8.4333l6.2975-2.4095
		l3.6177,11.646l9.7813,1.4725l2.5458,6.2915l8.5754-2.8111l11.3892,17.0005l13.533-1.8741l2.0098,4.0159l6.2975-1.8741
		l0.5359,5.2206l6.8335,4.6852l-1.3399,6.4254l7.2355-4.4174l8.8434,4.819l-10.5852,6.2915l2.9478,4.4174l-7.6374,4.6852
		l1.7419,5.2206l-11.3892,6.5592l1.7419,10.709l3.8857,3.2127l4.1537-2.0079l3.4837,6.1577l-3.7517,8.2995l11.7911,9.7719
		l0.9379,11.5121L195.9917,233.0773L195.9917,233.0773z"/>
	<path id="huenenberg" class="alg-wahlkreis" d="M58.5179,52.6313L56.91,53.4345l-3.4837,60.104l8.1734,16.0634l-1.2059,6.2915l3.7517,0.937
		l13.131,24.7645l-5.8956,10.709l6.5655,30.6544l6.5655,2.1418l-0.9379,3.2127l4.8237,2.0079l0.6699,5.0867l24.9222,21.284
		l15.9448,1.4725l-0.5359,7.8979l3.7517,6.5592l4.5556-1.8741l8.8434,8.9688l-2.2778,6.9608l3.4837,11.9137l3.4837,3.0788
		l-10.1833,9.7719l-4.2877-0.4016l-1.6079,8.9688l-5.8956,2.8111l0.67,8.701l-39.2591,3.2127l-1.2059,8.0317l-13.265-1.7402
		l-18.4906,7.3624l-4.6897-10.3074l2.4118-6.0238L44.181,258.3773l-2.8138-3.0788l-16.6148-4.4174l-5.3596-40.9618l11.2552-21.5518
		L4.252,81.5456L5.4579,73.38l25.1901-33.3317l1.4739-15.528l8.0394-11.9137l1.2059-5.3545l-1.2059-4.4175l2.9478,1.2048
		l3.2158,3.2127l4.0197,14.0555l3.7517,1.2048l1.2059,3.2127l-0.9379,2.945l-3.2158,3.2127l-0.8039,2.4095l1.6079,2.4095
		l2.4118,1.3386L58.5179,52.6313L58.5179,52.6313z"/>
	<path id="menzingen" class="alg-wahlkreis" d="M480.5866,334.6786l-2.5458,0.937l-8.1734-2.6772l-2.9478-5.8899l-3.2158-1.7402
		l-18.6246,9.6381h-4.6897l-4.9576-2.4095l-17.8207,2.945l-2.5458,4.9529l-2.8138,1.4725l-1.7419,2.0079l-2.2779-2.0079
		l-1.4739-11.3783l-2.1439-3.7481l2.4118-2.1418l-1.3399-1.6064l-7.9054-2.6772v-12.8507l1.7419-3.2127l-4.0197-26.2369
		l3.7517-13.654l-2.1439-4.0159v-2.2757l1.4739-3.2127l-4.6896-16.3312l-6.1636-3.7481l-2.9478-7.4963l5.4936-13.6539l3.3498,2.0079
		l14.7389-9.9058l5.2256,3.3465l4.6897-2.2757l-1.2059-4.9529l12.595-14.3233l4.1537-0.8032l15.0069,8.2995l8.0394-1.2047
		l3.0818,6.5592l13.533,7.6301l0.4019-3.4804l4.1537,1.7402l4.1537-4.5513l7.3694,1.0709l2.6798-4.9529l12.0591,1.3386
		l9.1113,6.6931l4.2877-4.9529l-7.2355-4.4174l-3.7517-19.6777l4.0197-2.1418l-3.4838-18.8746l-9.5133-3.3465l7.3695-7.764
		l4.4216,0.6693l7.3695,8.4333l2.5458,0.9371l14.739,26.237l-1.2059,8.1656l7.7714,6.5592l-0.67,8.1656l17.8207,29.0481v1.8741
		l-9.3793,16.1973v3.7481l2.1439,2.5434l35.9094,4.2836l0.6699,2.0079l-0.9379,1.2047v1.8741l2.8138,2.8111l27.468-7.4963
		l6.2975,3.4804h2.5458l4.9576-2.5434l5.3596,0.937l2.4118,34.5364l10.0493,2.8111l-3.4837,5.0867l-9.6473,1.0709l3.7517,10.3074
		l-4.8236,4.6852l0.268,5.4883l-4.9576,1.7402l-17.1507-2.945l-9.5132,3.4804l-42.0729-2.4095l-6.8336,2.4095l-8.8433-6.0238
		l-10.5852,6.6931l-11.1212-8.9688l-31.3537,3.7481L480.5866,334.6786L480.5866,334.6786z"/>
	<path id="neuheim" class="alg-wahlkreis" d="M390.2773,213.8012l4.4217-23.5597l-2.4118-7.2285l0.268-6.0238l-1.7419-1.4725l6.0296-7.4963
		l2.5458-16.8666l7.5034-2.1418v-8.8349l14.7389-4.0159l12.4611-14.3232l3.0818-10.0396l-5.6276-6.2915l-1.8759,0.6693l-0.67-0.937
		l5.6276-2.8111l-0.67-3.0788l4.1537-0.2677l0.5359,2.945l10.4512,0.2677l0.67,0.6693l0.268,1.8741l-4.0197,7.4963l2.8138,13.1185
		l1.8759,1.6064l4.4217,0.2677l6.8335-7.2285l9.3793,2.8111l4.9576-0.937l9.1113,9.6381v2.5434l-2.5458,3.7481v1.2048l1.6079,3.0788
		v1.8741l-1.2059,1.8741v3.0788l4.0197,8.1656l1.2059,0.937h1.2059l8.1734-5.6222l9.5133,3.3466l3.4837,18.8745l-4.0197,2.1418
		l3.7517,19.6777l7.2354,4.4174l-4.2877,4.9529l-9.1113-6.6931l-12.0591-1.3386l-2.6798,4.9529l-7.3695-1.0709l-4.1537,4.6852
		l-4.1537-1.7402l-0.402,3.4804l-13.533-7.6301l-3.0818-6.5592l-8.0394,1.2047l-15.0069-8.2995l-4.1537,0.8032l-12.5951,14.3233
		l1.2059,4.9529l-4.6896,2.2757l-5.2256-3.3466l-14.7389,9.9058L390.2773,213.8012L390.2773,213.8012z"/>
	<path id="oberaegeri" class="alg-wahlkreis" d="M648.6102,301.0792l21.1704,0.5355l41.6709-15.1264l7.6375,0.937l2.5458,12.9846
		l3.7517,2.8111v7.3624l2.4118,5.4883l-0.402,8.1656l5.3596,5.2206l-5.6276,4.5513l-3.7517-0.6693l-16.2128,10.3074l-13.399,22.4888
		l-0.268,3.7481l2.8138,6.2915l1.8759,1.6064l3.0818,0.6693l-0.536,1.7402l-1.3399,0.6693l-0.268,1.6064l2.1438,3.7481v1.2048
		l-1.2059,0.2678l-2.1438-0.8032l-3.4837,6.4254l0.268,1.8741l3.0817,3.0788v1.2048l-9.3793,20.6148l-2.5458,1.8741l-6.8335,0.937
		l-1.2059,1.3386l0.268,5.89l-2.5458,0.6693l-3.7517,4.0159l-4.4216,1.8741l-1.206,3.7481l-0.6699,0.6693l-1.8759,0.6693
		l-0.9379,1.2048v1.8741l1.8759,3.0788l-0.402,5.4883l-27.334,4.1497l2.1438,7.764l-35.3734,44.9776l-0.938,13.1185l-17.9547,9.1026
		l-67.397-3.7481l-3.2158,9.6381l-4.8236-46.4501l11.6571,3.3466l17.6867-6.8269l-6.9675-3.7481l-0.268-8.5672l-11.2552,3.2127
		l-0.4019-15.528l6.4315-3.882l17.1507,2.8111l2.4118-4.819l5.6276-0.2677l1.8759,1.2048l1.2059,22.2211l4.6896,6.2915
		l6.2975,2.1418l2.1439,8.701l1.6079,1.8741l6.8335,1.8741l5.8956-2.8111h0.6699l5.6276-3.0788l6.8335-37.4814l-20.6345-37.4814
		l-5.6276-4.4174l-5.6276-9.3703l-26.2621-11.2444l-7.5035,4.4174h-3.7516l-7.7714-6.2915l-4.0197-0.2677l-2.1439-3.0788
		l0.134-0.8031l-5.3596-6.2915l-5.6276-1.6064l-7.5035,0.937l-3.0818,2.4095l-0.5359-31.7253l-8.9773-19.0084l11.5231-9.2365
		l31.3537-3.7481l11.1212,8.9688l10.5852-6.6931l8.8434,6.0238l6.8335-2.4095l42.0729,2.4095l9.5133-3.4804l17.1507,2.945
		l4.9576-1.7402l-0.268-5.4884l4.8236-4.6852l-3.7517-10.3074l9.6473-1.0709L648.6102,301.0792L648.6102,301.0792z"/>
	<path id="risch" class="alg-wahlkreis" d="M52.6223,318.0797l4.6897,10.3074l18.4906-7.3624l13.265,1.7402l1.2059-8.0317l39.2591-3.2127
		l-0.67-8.701l5.8956-2.8111l1.6079-8.9688l4.2877,0.4016l10.1833-9.7719h0.67l11.5231,26.237l-3.0818,2.5434v1.8741l8.1734,6.5592
		l0.9379,1.8741l-3.7517,4.9529l0.67,11.9137l-4.9576,2.5434l-4.6897,11.2444l3.6177,21.1502l4.5556,5.0867l0.67,0.2678
		l4.9576,0.2677l5.6276,3.0788h1.2059l10.0493-9.3703h2.5458l1.2059,0.6693l1.2059,1.8741l-0.268,4.9529l-8.7094,13.1185
		l-0.67,5.6222l-9.3793,12.1814l4.0197,36.2766l3.0818,2.8111l-0.134,0.6693l-2.6798,4.5513l-23.7162,13.1185l-10.1833-2.0079
		l-9.1113-54.6157l-5.2256,3.3466l-10.3172-1.0709l-26.396,21.6859l-4.0197-2.8111l-9.2453,2.0079l-2.5458,3.6143l-0.9379-3.3465
		l-7.5034,3.2127l-3.0818-2.945l-1.8759,0.2677l-1.0719,3.4804l-8.0394-11.9137l5.3596-16.465l-2.8138-0.5355l1.3399-7.8979
		l-9.7813-26.6385l7.2355-17.0005l-7.7714-26.9063L52.6223,318.0797L52.6223,318.0797z"/>
	<path id="steinhausen" class="alg-wahlkreis" d="M249.4537,125.1845l10.3172,11.2444l-10.4512,18.4729l-4.1537-0.4016l-0.67,12.0476
		l18.4906,8.4333l-3.7517,10.8428l-6.4315,4.6852l0.402,9.3703l-21.7064,6.827l5.7616,5.8899l-12.0591,7.3624l-1.0719-5.6222
		l-6.4315-0.6693l-10.4512,6.0238l-7.6374-0.8032l3.3497-5.8899l-0.804-11.9137l-11.7911-9.7719l3.7517-8.2995l-3.4837-6.1577
		l-4.1537,2.0079l-3.8857-3.2127l-1.7419-10.709l11.3892-6.5592l-1.7419-5.2206l7.6374-4.6852l-2.9478-4.4174l10.5852-6.2915
		l9.3793,0.6693l31.8896-14.7248L249.4537,125.1845L249.4537,125.1845z"/>
	<path id="unteraegeri" class="alg-wahlkreis" d="M508.1885,438.0201l32.5596,18.0714h0.67l4.4216,1.8741l-2.4118,4.819l-17.1507-2.8111
		l-6.4315,3.882l0.4019,15.528l11.2552-3.2127l0.268,8.5672l6.9675,3.7481l-17.6867,6.8269l-11.6571-3.3466l4.8236,46.4501
		l-18.0887,4.6852l-10.7192-1.8741l-10.3172,8.0317l-1.8759,8.8349l-21.7064,8.8348l-8.0394-2.4095l-19.6966-28.5126l-4.4217-1.8741
		l-0.6699-0.6693l-6.8335-20.8824l-8.7094-5.6222l-4.4217-17.5359l6.0296-8.701l-4.6897-8.1656l0.134-11.1105l-9.7812-7.8979
		l-18.7586-1.0709l-7.2355-20.347l1.3399-13.2524l-4.4217-4.0159l-5.3596-21.2841l7.9054-31.993l31.0857-26.1031l6.8335-0.8032
		l0.4019-6.2915l2.8138-1.4725l2.1438,3.7481l1.4739,11.3783l2.2779,2.0079l1.7419-2.0079l2.8138-1.4725l2.5458-4.9529
		l17.8207-2.945l4.9576,2.4095h4.6897l18.6246-9.6381l3.2158,1.7402l2.9478,5.8899l8.1734,2.6772l2.5458-0.9371l8.9774,19.0084
		l0.5359,31.7253l-3.7517,0.4016l-16.8828-6.1576l-1.2059,0.6693l-0.67,1.4724l9.1113,9.1026l2.5458,0.937l4.6897,8.8349
		l-1.2059,6.8269l0.9379,1.2048l3.2158,0.2678l1.4739,1.2048l0.268,5.6222l-1.8758,1.2048h-2.5458l-1.8759,1.6064l-2.1439,4.9529
		l-4.4217,3.0788l-0.67,1.2048v1.2048l1.2059,1.8741L508.1885,438.0201L508.1885,438.0201z"/>
	<path id="walchwil" class="alg-wahlkreis" d="M363.8813,432.1302l7.2355,20.347l18.7586,1.0709l9.7812,7.8979l-0.134,11.1105l4.6897,8.1656
		l-6.0296,8.701l4.4217,17.5359l8.7094,5.6222l5.6276,13.2524l-6.1635,3.6143l-1.8759,8.1655l-1.6079-3.3466l-34.7034-0.1339
		l-3.7517-1.8741h-5.6276l-10.5852,7.764l-32.5596,1.8741l-3.7517,4.0159l-8.4413,1.8741l-6.8335-14.0555v-0.6693l-1.8759-1.8741
		l-1.8759-0.6693l-41.2689-66.5294l17.8207-19.2762l4.5556-17.9376l16.2128-1.7402l4.4217-6.8269l5.2256-0.8031l5.8955,4.2836
		l6.6995-3.882l13.265,0.1339l8.4413,23.8274l7.2354-6.4254L363.8813,432.1302L363.8813,432.1302z"/>
	<path id="zug" class="alg-wahlkreis" d="M253.3394,199.7457l1.2059,9.6381l-6.2975,5.0867l7.5035,7.2285l6.5655-2.5434l-1.0719-5.4883
		l9.6473-6.6931l1.2059,2.2757l-2.2778,3.7481l23.7162,15.3941l9.9153-2.5434l6.1636-12.583l4.2877,2.0079l3.2158,4.6852
		l-3.0818,4.9529l3.7517,1.4725l-7.2355,14.5909l14.203,7.2285l2.5458,8.9688l2.1438-3.0788l9.7813-0.5354l9.9153,19.1422
		l-8.3074,4.0159l-0.67,10.0396l4.2877,6.2915l3.7517-0.2677l5.4936,14.7248l4.0197-0.2677l1.3399,6.0238l18.2227,3.6143
		l9.5133-5.2206l7.7714,23.8274l-31.0857,26.1031l-7.9054,31.993l5.3596,21.2841l4.4217,4.0158l-1.3399,13.2524l-17.9547,3.3466
		l-7.2354,6.4254l-8.4413-23.8274l-13.265-0.1338l-6.6995,3.882l-5.8955-4.2836l-5.2256,0.8032l-4.4217,6.8269l-16.2128,1.7402
		l-4.5556,17.9375l-17.8207,19.2762l-1.2059-6.2915l-1.6079-1.8741l-2.5458-1.2048l-3.4837-4.4174l-3.7517-19.9455l24.1182-43.1036
		v-1.8741l-3.7517-5.6222l1.0719-28.5126l13.265-26.7724v-2.5434l-1.2059-2.5434l11.2552-40.5602l-1.8759-6.827l-21.8404-9.3703
		l-4.4217-4.9529l-0.268-1.2048l-1.6079-1.8741l-7.5035-1.2047l-3.0818-4.4174l-19.4286-5.8899l-11.9251,2.5434l-4.4217,3.7481
		l-1.8759,0.2677l-0.67-0.6693l0.268-6.2915l-6.2975-4.6852l-0.268-2.5434l0.67-1.2048v-3.0788l-1.2059-0.937h-1.8759
		l-3.7517,2.8111h-1.2059l3.8857-14.591l7.6374,0.8032l10.4512-6.0238l6.4315,0.6693l1.0719,5.6222l12.0591-7.3624l-5.7616-5.8899
		L253.3394,199.7457L253.3394,199.7457z"/>
</g>
</svg>
