<svg viewBox="0 0 213 50" fill="none" xmlns="http://www.w3.org/2000/svg" class="alg-logo">
<g clip-path="url(#clip0_4_8)">
<path d="M42.7849 9.91757C42.7849 1.56937 35.8378 0 29.0139 0C25.4133 0 19.3615 1.17505 17.0471 4.30587C21.8108 3.65196 25.5404 5.74248 25.5404 11.0867C25.5404 16.9599 21.5547 18.7889 16.533 18.7889C10.9953 18.7889 7.26374 14.481 7.26374 9.13684C7.26374 8.12428 7.35561 7.17315 7.52372 6.27948C2.86367 11.2412 0 17.9646 0 25.3557C0 30.7851 1.54227 35.842 4.20656 40.1221C5.45953 16.4527 42.7849 28.005 42.7849 9.91955" class="alg-logo-color"/>
<path d="M19.7974 41.1584C19.7974 47.0554 22.4285 50.002 28.1089 50.002C37.5248 50.002 42.7849 41.8599 42.7849 32.8756V23.7487L28.1089 30.4918C24.09 32.3148 19.7974 34.5639 19.7974 41.1604" class="alg-logo-color"/>
<path d="M66.7381 29.5526L66.1321 26.1582H62.0956L61.4056 29.5526H59.9591L62.1269 18.7592C62.1621 18.567 62.207 18.3886 62.2618 18.2202C62.3184 18.0577 62.3927 17.9111 62.4885 17.7862C62.5843 17.6634 62.7113 17.5623 62.8677 17.489C63.026 17.4137 63.2215 17.3761 63.4561 17.3761H64.8205C65.0902 17.3761 65.3072 17.4236 65.4753 17.5148C65.6434 17.6059 65.7783 17.7347 65.8799 17.9051C65.9816 18.0795 66.0617 18.2856 66.1243 18.5313C66.1849 18.775 66.2455 19.0505 66.3022 19.3556L68.2021 29.5546H66.74L66.7381 29.5526ZM64.8889 19.2545C64.8537 19.0604 64.8029 18.9395 64.7364 18.888C64.67 18.8384 64.5527 18.8087 64.3846 18.8087H63.9115C63.7532 18.8087 63.6535 18.8285 63.6086 18.8701C63.5656 18.9098 63.5186 19.0267 63.4737 19.2189L62.379 24.7256H65.9132L64.8889 19.2545Z" class="alg-logo-color"/>
<path d="M71.4802 29.5526V17.3761H72.8915V28.1179H79.2835V29.5526H71.4802Z" class="alg-logo-color"/>
<path d="M87.0711 18.8087V29.5526H85.6597V18.8087H82.413V17.3761H90.3178V18.8087H87.073H87.0711Z" class="alg-logo-color"/>
<path d="M93.8989 29.5526V17.3761H101.399V18.8087H95.3122V22.6806H99.4816V24.1133H95.3122V28.1199H101.62V29.5546H93.9009L93.8989 29.5526Z" class="alg-logo-color"/>
<path d="M111.22 29.5526L109.55 24.2143H106.089V29.5526H104.677V17.3761H109.738C110.141 17.3761 110.518 17.4434 110.866 17.5742C111.214 17.705 111.513 17.8932 111.765 18.1429C112.017 18.3946 112.217 18.6977 112.361 19.0544C112.506 19.4131 112.58 19.8133 112.58 20.2552V21.3332C112.58 21.991 112.434 22.5479 112.142 23.0036C111.849 23.4574 111.458 23.7863 110.964 23.9924L112.695 29.5526H111.216H111.22ZM111.169 20.2572C111.169 19.7797 111.042 19.421 110.79 19.1753C110.537 18.9316 110.186 18.8087 109.734 18.8087H106.089V22.7817H109.734C110.184 22.7817 110.536 22.6608 110.79 22.4171C111.042 22.1714 111.169 21.8107 111.169 21.3352V20.2572Z" class="alg-logo-color"/>
<path d="M121.625 29.5526L117.324 19.6627V29.5526H115.911V17.3761H117.893L122.201 27.2996V17.3761H123.615V29.5526H121.623H121.625Z" class="alg-logo-color"/>
<path d="M133.539 29.5526L132.933 26.1582H128.898L128.208 29.5526H126.76L128.929 18.7592C128.965 18.567 129.008 18.3886 129.064 18.2202C129.121 18.0577 129.195 17.9111 129.293 17.7862C129.387 17.6634 129.512 17.5623 129.672 17.489C129.827 17.4137 130.024 17.3761 130.261 17.3761H131.623C131.893 17.3761 132.112 17.4236 132.278 17.5148C132.444 17.6059 132.579 17.7347 132.681 17.9051C132.782 18.0795 132.864 18.2856 132.925 18.5313C132.985 18.775 133.046 19.0505 133.103 19.3556L135.003 29.5546H133.541L133.539 29.5526ZM131.686 19.2545C131.652 19.0604 131.603 18.9395 131.535 18.888C131.469 18.8384 131.351 18.8087 131.183 18.8087H130.712C130.554 18.8087 130.454 18.8285 130.409 18.8701C130.364 18.9098 130.319 19.0267 130.274 19.2189L129.182 24.7256H132.712L131.686 19.2545Z" class="alg-logo-color"/>
<path d="M142.736 18.8087V29.5526H141.322V18.8087H138.078V17.3761H145.982V18.8087H142.736Z" class="alg-logo-color"/>
<path d="M150.001 29.5526V28.1179H152.456V18.8087H150.001V17.3761H156.327V18.8087H153.868V28.1179H156.327V29.5526H150.001Z" class="alg-logo-color"/>
<path d="M166.466 28.1695C166.433 28.3518 166.392 28.5261 166.339 28.7005C166.29 28.8689 166.212 29.0156 166.112 29.1424C166.012 29.2692 165.881 29.3683 165.725 29.4396C165.569 29.5149 165.373 29.5526 165.137 29.5526H163.438C163.168 29.5526 162.949 29.505 162.781 29.4139C162.613 29.3227 162.478 29.1939 162.379 29.0195C162.279 28.8511 162.195 28.643 162.134 28.3993C162.072 28.1556 162.015 27.8802 161.956 27.573L160.125 17.3761H161.589L163.42 27.6741C163.456 27.8683 163.505 27.9891 163.571 28.0407C163.637 28.0902 163.757 28.1179 163.923 28.1179H164.648C164.806 28.1179 164.912 28.1001 164.969 28.0585C165.025 28.0208 165.068 27.902 165.105 27.7078L167.021 17.3761H168.466L166.464 28.1695H166.466Z" class="alg-logo-color"/>
<path d="M171.832 29.5526V17.3761H179.332V18.8087H173.245V22.6806H177.414V24.1133H173.245V28.1199H179.553V29.5546H171.834L171.832 29.5526Z" class="alg-logo-color"/>
<path d="M67.8306 46.6809C67.6859 47.0396 67.4846 47.3428 67.2325 47.5924C66.9803 47.8421 66.6812 48.0343 66.3333 48.1631C65.9853 48.2939 65.61 48.3573 65.2074 48.3573H60.1114V36.1867H65.2074C65.61 36.1867 65.9853 36.2501 66.3333 36.3809C66.6812 36.5137 66.9803 36.7019 67.2325 36.9556C67.4846 37.2033 67.684 37.5104 67.8306 37.8651C67.9772 38.2238 68.0495 38.624 68.0495 39.0679V45.4781C68.0495 45.92 67.9752 46.3223 67.8306 46.679V46.6809ZM66.6363 39.0699C66.6363 38.5923 66.5112 38.2317 66.257 37.986C66.0049 37.7403 65.655 37.6194 65.2074 37.6194H61.5227V46.9266H65.2074C65.655 46.9266 66.0049 46.8077 66.257 46.562C66.5112 46.3183 66.6363 45.9577 66.6363 45.4801V39.0699Z" class="alg-logo-color"/>
<path d="M72.0686 48.3573V46.9247H74.5257V37.6174H72.0686V36.1867H78.3921V37.6174H75.937V46.9247H78.3921V48.3573H72.0686Z" class="alg-logo-color"/>
<path d="M82.7648 48.3573V36.1867H90.267V37.6174H84.1781V41.4873H88.3494V42.92H84.1781V46.9266H90.486V48.3593H82.7668L82.7648 48.3573Z" class="alg-logo-color"/>
<path d="M111.489 39.7178L111.151 38.7786C111.005 38.3605 110.838 38.0613 110.645 37.8829C110.455 37.7086 110.156 37.6194 109.752 37.6194H107.508C107.08 37.6194 106.736 37.7403 106.478 37.986C106.219 38.2317 106.089 38.5923 106.089 39.0699V45.4801C106.089 45.9577 106.219 46.3183 106.478 46.562C106.736 46.8078 107.08 46.9266 107.508 46.9266H109.734C110.184 46.9266 110.536 46.8097 110.79 46.57C111.042 46.3322 111.169 45.9696 111.169 45.4801V43.1954H108.833V41.7608H112.582V45.4881C112.582 45.928 112.508 46.3282 112.363 46.6849C112.219 47.0436 112.019 47.3447 111.767 47.5924C111.515 47.8441 111.216 48.0343 110.868 48.1651C110.52 48.2959 110.143 48.3573 109.74 48.3573H107.523C107.128 48.3573 106.757 48.2939 106.411 48.1631C106.063 48.0323 105.76 47.8421 105.504 47.5924C105.248 47.3428 105.045 47.0416 104.898 46.6889C104.752 46.3381 104.681 45.9339 104.681 45.4801V39.0699C104.681 38.6141 104.752 38.2079 104.898 37.8512C105.045 37.4946 105.248 37.1934 105.504 36.9477C105.76 36.7019 106.063 36.5157 106.411 36.3849C106.757 36.2541 107.128 36.1907 107.523 36.1907H109.724C110.487 36.1907 111.071 36.3849 111.484 36.7693C111.892 37.1557 112.224 37.6927 112.482 38.3724L112.801 39.2403L111.489 39.7198V39.7178Z" class="alg-logo-color"/>
<path d="M122.354 48.3573L120.684 43.023H117.223V48.3573H115.811V36.1867H120.872C121.275 36.1867 121.652 36.2501 121.998 36.3809C122.346 36.5137 122.645 36.7019 122.897 36.9556C123.149 37.2033 123.349 37.5104 123.495 37.8651C123.64 38.2238 123.714 38.624 123.714 39.0679V40.1419C123.714 40.7997 123.568 41.3566 123.274 41.8123C122.983 42.2681 122.59 42.599 122.098 42.8011L123.832 48.3593H122.35L122.354 48.3573ZM122.303 39.0679C122.303 38.5903 122.176 38.2297 121.922 37.984C121.67 37.7383 121.32 37.6174 120.868 37.6174H117.225V41.5904H120.868C121.32 41.5904 121.67 41.4695 121.922 41.2258C122.176 40.982 122.303 40.6214 122.303 40.1419V39.0679Z" class="alg-logo-color"/>
<path d="M134.639 46.6889C134.498 47.0416 134.303 47.3428 134.051 47.5924C133.799 47.8421 133.498 48.0343 133.152 48.1631C132.804 48.2939 132.423 48.3573 132.008 48.3573H129.79C129.395 48.3573 129.023 48.2939 128.677 48.1631C128.331 48.0323 128.028 47.8421 127.77 47.5924C127.514 47.3428 127.311 47.0416 127.164 46.6889C127.02 46.3381 126.947 45.9339 126.947 45.4801V36.1887H128.363V45.4801C128.363 45.9577 128.486 46.3183 128.742 46.562C128.994 46.8077 129.34 46.9266 129.78 46.9266H132.006C132.454 46.9266 132.806 46.8097 133.06 46.57C133.312 46.3322 133.439 45.9696 133.439 45.4801V36.1887H134.852V45.4801C134.852 45.9339 134.784 46.3381 134.643 46.6889H134.639ZM129.854 33.7851C129.854 33.9991 129.844 34.1794 129.829 34.3221C129.813 34.4628 129.768 34.5758 129.694 34.6649C129.619 34.7501 129.51 34.8056 129.365 34.8333C129.219 34.8611 129.017 34.8769 128.761 34.8769C128.505 34.8769 128.302 34.8611 128.155 34.8333C128.009 34.8036 127.899 34.7481 127.827 34.6649C127.753 34.5758 127.712 34.4628 127.692 34.3221C127.675 34.1794 127.669 34.0011 127.669 33.7851C127.669 33.5572 127.678 33.369 127.702 33.2204C127.723 33.0757 127.77 32.9549 127.845 32.8637C127.919 32.7726 128.028 32.7111 128.173 32.6774C128.32 32.6418 128.515 32.6259 128.763 32.6259C129.012 32.6259 129.205 32.6418 129.35 32.6774C129.496 32.7111 129.606 32.7726 129.68 32.8637C129.752 32.9549 129.801 33.0757 129.823 33.2204C129.842 33.369 129.858 33.5592 129.858 33.7851H129.854ZM134.311 33.7851C134.311 33.9991 134.303 34.1794 134.287 34.3221C134.27 34.4628 134.225 34.5758 134.152 34.6649C134.076 34.7501 133.967 34.8056 133.822 34.8333C133.676 34.8611 133.474 34.8769 133.216 34.8769C132.958 34.8769 132.757 34.8611 132.614 34.8333C132.467 34.8036 132.358 34.7481 132.284 34.6649C132.209 34.5758 132.166 34.4628 132.149 34.3221C132.131 34.1794 132.125 34.0011 132.125 33.7851C132.125 33.5572 132.135 33.369 132.159 33.2204C132.182 33.0757 132.227 32.9549 132.301 32.8637C132.376 32.7726 132.485 32.7111 132.632 32.6774C132.778 32.6418 132.974 32.6259 133.218 32.6259C133.462 32.6259 133.662 32.6418 133.808 32.6774C133.953 32.7111 134.063 32.7726 134.139 32.8637C134.207 32.9549 134.256 33.0757 134.28 33.2204C134.301 33.369 134.315 33.5592 134.315 33.7851H134.311Z" class="alg-logo-color"/>
<path d="M143.893 48.3573L139.592 38.4695V48.3573H138.177V36.1867H140.163L144.469 46.1063V36.1867H145.883V48.3573H143.895H143.893Z" class="alg-logo-color"/>
<path d="M149.563 48.3573V36.1867H157.064V37.6174H150.977V41.4873H155.146V42.92H150.977V46.9266H157.285V48.3593H149.565L149.563 48.3573Z" class="alg-logo-color"/>
<path d="M166.159 48.3573L161.859 38.4695V48.3573H160.445V36.1867H162.429L166.734 46.1063V36.1867H168.147V48.3573H166.159Z" class="alg-logo-color"/>
<path d="M182.712 48.3573V47.2675L188.531 37.6174H182.846V36.1867H190.415V37.2786L184.594 46.9247H190.497V48.3573H182.71H182.712Z" class="alg-logo-color"/>
<path d="M201.438 46.6889C201.299 47.0416 201.104 47.3428 200.851 47.5924C200.599 47.8421 200.298 48.0343 199.952 48.1631C199.602 48.2939 199.221 48.3573 198.809 48.3573H196.588C196.195 48.3573 195.824 48.2939 195.478 48.1631C195.132 48.0323 194.827 47.8421 194.571 47.5924C194.313 47.3428 194.112 47.0416 193.965 46.6889C193.82 46.3381 193.748 45.9339 193.748 45.4801V36.1887H195.163V45.4801C195.163 45.9577 195.29 46.3183 195.542 46.562C195.795 46.8077 196.141 46.9266 196.578 46.9266H198.807C199.254 46.9266 199.604 46.8097 199.86 46.57C200.113 46.3322 200.24 45.9696 200.24 45.4801V36.1887H201.653V45.4801C201.653 45.9339 201.584 46.3381 201.442 46.6889H201.438Z" class="alg-logo-color"/>
<path d="M211.69 39.7178L211.352 38.7786C211.206 38.3605 211.039 38.0613 210.848 37.8829C210.656 37.7086 210.359 37.6194 209.953 37.6194H207.709C207.28 37.6194 206.938 37.7403 206.68 37.986C206.422 38.2317 206.291 38.5923 206.291 39.0699V45.4801C206.291 45.9577 206.422 46.3183 206.68 46.562C206.938 46.8078 207.28 46.9266 207.709 46.9266H209.935C210.385 46.9266 210.736 46.8097 210.991 46.57C211.245 46.3322 211.37 45.9696 211.37 45.4801V43.1954H209.034V41.7608H212.783V45.4881C212.783 45.928 212.709 46.3282 212.564 46.6849C212.419 47.0436 212.22 47.3447 211.968 47.5924C211.716 47.8441 211.417 48.0343 211.069 48.1651C210.721 48.2959 210.345 48.3573 209.941 48.3573H207.722C207.331 48.3573 206.96 48.2939 206.61 48.1631C206.264 48.0323 205.961 47.8421 205.701 47.5924C205.445 47.3428 205.242 47.0416 205.099 46.6889C204.952 46.3381 204.88 45.9339 204.88 45.4801V39.0699C204.88 38.6141 204.954 38.2079 205.099 37.8512C205.242 37.4946 205.445 37.1934 205.701 36.9477C205.959 36.7019 206.264 36.5157 206.61 36.3849C206.96 36.2541 207.331 36.1907 207.722 36.1907H209.925C210.688 36.1907 211.276 36.3849 211.684 36.7693C212.091 37.1557 212.425 37.6927 212.681 38.3724L213.004 39.2403L211.692 39.7198L211.69 39.7178Z" class="alg-logo-color"/>
</g>
</svg>
